# xmcd
#
# Track frame offsets:
#	150
#	16045
#	32247
#	49775
#	66172
#	100237
#	117560
#	137577
#	155250
#	169525
#	189412
#	208165
#	224200
#	238737
#	254262
#	270982
#	288690
#	304182
#	323745
#
# Disc length: 4492
#
# Revision: 1
# Processed by: cddbd v1.5.1PL0 Copyright (c) Steve Scherf et al.
# Submitted via: MusicManager v6.1.1.0
# Normalized: r0:DSETVAR1
#
DISCID=1a118a13
DTITLE=Various Artist - The Soul of R&B CD 1
DYEAR=1998
DGENRE=blues
TTITLE0=Lutricia McNeal - Stranded
TTITLE1=Jade - Don't walk away
TTITLE2=Color me badd - I wanna sex you up
TTITLE3=Charles and Eddie - Would I lie to you?
TTITLE4=Quincy Jones - The secret garden
TTITLE5=Shola Ama - You might need somebody
TTITLE6=Lisa Stansfield - All around the world
TTITLE7=Bobby Brown - Good Enough
TTITLE8=Shai - If I ever fall in love
TTITLE9=Robin S. - What I do best
TTITLE10=Damage - Wonderful Tonight
TTITLE11=Mondane - Wake up
TTITLE12=Claudia Nelson - Senses
TTITLE13=Steelo - Do me like that
TTITLE14=Beverley Knight - Down for the one
TTITLE15=Ebony Feat. Sensi and Phoebe 1 - If I change my mind
TTITLE16=Real Vibes - Believe in Me
TTITLE17=Ray Feat. Dignity - Do you think I'm sexy
TTITLE18=Mary J. Blidge - Natural Woman
EXTD=
EXTT0=
EXTT1=
EXTT2=
EXTT3=
EXTT4=
EXTT5=
EXTT6=
EXTT7=
EXTT8=
EXTT9=
EXTT10=
EXTT11=
EXTT12=
EXTT13=
EXTT14=
EXTT15=
EXTT16=
EXTT17=
EXTT18=
PLAYORDER=
